<svg xmlns="http://www.w3.org/2000/svg" xmlns:xlink="http://www.w3.org/1999/xlink" width="154" height="60" viewBox="0 0 154 60">
    <defs>
        <path id="a" d="M.57.728h2.81v2.809H.57z"/>
    </defs>
    <g fill="none" fill-rule="evenodd">
        <path fill="#FF8F00" d="M29.827 16.623v-4.998l-12.993 4.17v-3.91c1.414.245 2.797.726 4.079 1.459V10.57a12.49 12.49 0 0 0-4.825-1.562V3.257a1.91 1.91 0 0 0 .543-1.336c0-1.92-1.715-1.92-1.919-1.92-1.059 0-1.918.73-1.918 1.92 0 .52.207.99.543 1.336v5.752A12.507 12.507 0 0 0 8.51 10.57v2.773a12.537 12.537 0 0 1 4.08-1.458v5.257L0 21.226v5.015l12.589-4.074v2.684L0 28.923v18.635l14.786 12.488 15.043-12.313V27.538l-10.796 3.479 5.33 1.97v12.019l-9.577 8.274-9.323-8.274V32.754l7.126-2.385v14.323l2.197 3.287 2.048-3.287v-15.67l12.993-4.184v-5.515L16.834 23.5v-2.68l12.993-4.197zM53.918 32.82h-7.296l-2.698 4.166h5.64v1.38c0 .104-.03.163-.112.25l-2.887 2.887c-.084.08-.144.104-.247.104h-5.005c-.11 0-.167-.025-.252-.104l-1.236-1.243a.343.343 0 0 1-.107-.241V29.835c0-.09.037-.175.107-.247l1.236-1.235c.09-.085.141-.13.252-.13h8.293l2.694-4.15-11.809-.001c-.676 0-1.292.26-1.784.743l-2.603 2.605a2.408 2.408 0 0 0-.75 1.779v11.454c0 .677.256 1.29.75 1.775l2.603 2.603a2.443 2.443 0 0 0 1.784.746h6.428c.684 0 1.301-.256 1.788-.744l.843-.831 1.355-1.336 3.013 2.91V32.82zM107.387 41.608h-6.848v-4.645h6.027c.105 0 .162.028.247.112l1.525 1.526c.085.076.11.133.11.238v1.716c0 .111-.025.164-.113.25l-.69.695a.363.363 0 0 1-.258.108zm1.06-10.567c0 .11-.024.169-.112.251l-1.46 1.419a.348.348 0 0 1-.245.106h-6.091v-4.575h6.848c.112 0 .174.029.255.11l.696.703c.085.077.11.13.11.243v1.743zm1.515-6.255a2.353 2.353 0 0 0-1.713-.714H96.173v21.705h12.076c.692 0 1.264-.232 1.75-.71l2.063-2.064c.49-.497.745-1.095.745-1.78v-2.92a2.4 2.4 0 0 0-.745-1.778l-1.618-1.616 1.609-1.61c.5-.493.754-1.089.754-1.78v-2.856c0-.699-.247-1.282-.745-1.784l-2.1-2.093zM71.973 28.244v-4.171h-15.03v21.704h15.031v-4.17H61.302V37h5.158l2.669-4.176h-7.827v-4.579zM131.03 28.244v-4.171h-15.033v21.704h15.032v-4.17h-10.672V37h5.158l2.668-4.176h-7.826v-4.579zM138.44 28.244h6.857c.107 0 .16.027.246.104l.699.703c.083.085.11.142.11.244v2.476c0 .1-.027.16-.11.248l-.69.692c-.094.088-.154.112-.255.112h-6.856v-4.579zm7.52 8.74h.191c.663 0 1.205-.34 1.724-.716l2.085-1.638c.499-.499.746-1.084.746-1.78v-4.187c0-.698-.247-1.281-.746-1.782l-2.085-2.095a2.375 2.375 0 0 0-1.724-.713h-12.07v21.704h4.36v-8.793h2.042c.125 0 .23.055.313.18l6.33 8.613h5.369l-6.535-8.793zM79.35 28.242h6.86c.107 0 .167.03.256.11l.696.7c.082.08.105.135.105.246v2.47a.3.3 0 0 1-.105.247l-.694.696c-.09.086-.154.112-.257.112h-6.86v-4.581zm7.72 8.745c.658 0 1.235-.239 1.721-.712l2.088-1.643c.507-.511.751-1.092.751-1.782v-4.187c0-.692-.244-1.275-.75-1.784l-2.093-2.095a2.382 2.382 0 0 0-1.717-.712H75.018v21.705h4.333v-8.798h2.04c.135 0 .237.057.328.18l6.324 8.618h5.367l-6.531-8.79h.191z"/>
        <g transform="translate(150.419 23.33)">
            <mask id="b" fill="#fff">
                <use xlink:href="#a"/>
            </mask>
            <path fill="#FF8F00" d="M1.99 2.045c.18 0 .323-.021.323-.228 0-.176-.168-.206-.32-.206h-.268v.434h.264zm-.07.218h-.195v.656h-.284V1.394h.581c.372 0 .575.126.575.445 0 .277-.174.39-.383.412l.41.668h-.321l-.384-.656zm.055.968c.585 0 1.078-.493 1.078-1.1 0-.608-.493-1.097-1.078-1.097-.585 0-1.079.49-1.079 1.097s.494 1.1 1.079 1.1zm1.406-1.1a1.405 1.405 0 1 1-2.811 0 1.405 1.405 0 0 1 2.81 0z" mask="url(#b)"/>
        </g>
    </g>
</svg>